# xmcd
# 
# Track frame offsets:
#     150
#     15600
#     36225
#     59625
#     75300
#     98325
#     117600
#     142125
#     164175
#     185175
#     206025
#     226050
#     246712
#     268500
#     283125
#     295200
#     312075
# 
# Disc length: 4377
# 
# Revision: 17
# Processed by: cddbd v1.5.2PL0 Copyright (c) Steve Scherf et al.
# Submitted via: BonkEnc v1.0.8
# 
DISCID=09111711
DTITLE=Various Artist - Kuschel Rock Vol.6  [CD 1/2)
DYEAR=1992
DGENRE=Rock
TTITLE0=Verschiedene Gruppen - MR. BIG - To Be With You
TTITLE1=Verschiedene Gruppen - ROXETTE - Spending My Time
TTITLE2=Verschiedene Gruppen - SCORPOINS - Wind Of Change
TTITLE3=Verschiedene Gruppen - MARIAH CAREY - Vision Of Love
TTITLE4=Verschiedene Gruppen - ELTON JOHN - Sacrifice
TTITLE5=Verschiedene Gruppen - SIMPLY RED - For Your Babies
TTITLE6=Verschiedene Gruppen - PHIL COLLINS - I Wish It Would Rain Down
TTITLE7=Verschiedene Gruppen - ANNIE LENNOX - Why
TTITLE8=Verschiedene Gruppen - ROD STEWART - Every Beat Of My Heart
TTITLE9=Verschiedene Gruppen - CURTIS STIGERS - You're All That Matters To Me
TTITLE10=Verschiedene Gruppen - ZUCCHERO FEAT. PAUL YOUNG - Senza Una Donna (Without A Woman)
TTITLE11=Verschiedene Gruppen - GENESIS - Hold On My Heart
TTITLE12=Verschiedene Gruppen - SIMON and GARFUNKEL - Bridge Over Troubled Water
TTITLE13=Verschiedene Gruppen - CAT STEVENS - Morning Has Broken
TTITLE14=Verschiedene Gruppen - JOE COCKER - You Are So Beautiful
TTITLE15=Verschiedene Gruppen - RICHARD MARX - Children Of The Night
TTITLE16=Verschiedene Gruppen - Bonnie Tyler - Against The Wind
EXTD=YEAR: 1992
EXTT0=
EXTT1=
EXTT2=
EXTT3=
EXTT4=
EXTT5=
EXTT6=
EXTT7=
EXTT8=
EXTT9=
EXTT10=
EXTT11=
EXTT12=
EXTT13=
EXTT14=
EXTT15=
EXTT16=
PLAYORDER=
